<?xml version="1.0" encoding="UTF-8"?>
<!DOCTYPE svg PUBLIC "-//W3C//DTD SVG 1.1//EN" "http://www.w3.org/Graphics/SVG/1.1/DTD/svg11.dtd">
<!-- Creator: CorelDRAW -->
<svg xmlns="http://www.w3.org/2000/svg" xml:space="preserve" width="250mm" height="250mm" version="1.1" style="shape-rendering:geometricPrecision; text-rendering:geometricPrecision; image-rendering:optimizeQuality; fill-rule:evenodd; clip-rule:evenodd"
viewBox="0 0 25000 25000"
 xmlns:xlink="http://www.w3.org/1999/xlink"
 xmlns:xodm="http://www.corel.com/coreldraw/odm/2003">
 <defs>
  <style type="text/css">
   <![CDATA[
    .str4 {stroke:#B09060;stroke-width:400;stroke-miterlimit:22.9256}
    .str1 {stroke:#FEFEFE;stroke-width:500;stroke-miterlimit:22.9256}
    .str2 {stroke:#FEFEFE;stroke-width:1000;stroke-miterlimit:22.9256}
    .str3 {stroke:#D9DADA;stroke-width:25;stroke-miterlimit:22.9256}
    .str0 {stroke:#2B2A29;stroke-width:20;stroke-miterlimit:22.9256}
    .str10 {stroke:#231B15;stroke-width:500;stroke-linejoin:round;stroke-miterlimit:22.9256}
    .str6 {stroke:#1F2937;stroke-width:50;stroke-linecap:round;stroke-linejoin:round;stroke-miterlimit:22.9256}
    .str8 {stroke:#374151;stroke-width:50;stroke-linecap:round;stroke-linejoin:round;stroke-miterlimit:22.9256}
    .str7 {stroke:#451A03;stroke-width:50;stroke-linecap:round;stroke-linejoin:round;stroke-miterlimit:22.9256}
    .str5 {stroke:#514234;stroke-width:100;stroke-linecap:square;stroke-linejoin:bevel;stroke-miterlimit:22.9256}
    .str9 {stroke:#374151;stroke-width:50;stroke-linecap:square;stroke-linejoin:bevel;stroke-miterlimit:22.9256}
    .fil3 {fill:none}
    .fil2 {fill:#00ACC1}
    .fil0 {fill:#388E3C}
    .fil9 {fill:#4B5563}
    .fil11 {fill:#6B7280}
    .fil10 {fill:#92400E}
    .fil7 {fill:#B09060}
    .fil6 {fill:#DABD8F}
    .fil1 {fill:#F39C12}
    .fil4 {fill:white}
    .fil5 {fill:#2B2A29;fill-rule:nonzero}
    .fil14 {fill:#7F1D1D;fill-rule:nonzero}
    .fil8 {fill:#B09060;fill-rule:nonzero}
    .fil13 {fill:#B91C1C;fill-rule:nonzero}
    .fil12 {fill:#F97316;fill-rule:nonzero}
   ]]>
  </style>
 </defs>
 <g id="Слой_x0020_1">
  <metadata id="CorelCorpID_0Corel-Layer"/>
  <g id="_2944431400320">
   <polygon class="fil0 str0" points="12494.73,12505.27 2742.69,6874.92 2742.69,18135.62 12494.73,23765.96 "/>
   <polygon class="fil1 str0" points="22246.77,6874.92 12494.73,1244.58 2742.69,6874.92 12494.73,12505.27 "/>
   <polygon class="fil2 str0" points="22246.77,6874.92 12494.73,12505.27 12494.73,23765.96 22246.77,18135.62 "/>
  </g>
  <path class="fil3" d="M2742.69 14923.19c1472,902.59 6838.61,3155.2 9752.04,3449.71 1135.82,114.82 10513.72,-4857.21 9752.04,-5176.8"/>
  <path class="fil3 str1" d="M22246.77 6874.92l-9752.04 5630.35m-9752.04 -5630.35l9752.04 5630.35m0 11260.69l0 -11260.69"/>
  <polygon class="fil3 str2" points="12494.73,1244.58 22246.77,6874.92 22246.77,18135.62 12494.73,23765.96 2742.69,18135.62 2742.69,6874.92 "/>
  <g id="_2944431399264">
   <path class="fil4 str3" d="M6873.81 18952.9c317.98,107.58 997.51,237.4 1247.5,232.17 -91.04,-34.7 -194.44,-88.11 -267.69,-160.99 312.84,117.6 417.68,154.32 739.22,-29.85 -70.73,-12.56 -138.8,-40.65 -193.54,-95.39 402.89,236.24 1521.17,-524.77 2302.81,-1018.61 609.52,-385.08 1139.29,-1062.09 1108.88,-1134.61 -30.2,-72.05 -291.25,-30.49 -891.27,188.79 -354.64,129.6 -944.44,300.52 -1091.12,348.95 -76.68,25.3 -453.69,146.78 -796.95,318.69 -278.68,139.57 -535.13,312.4 -590.59,494.04 16.73,-153.6 53.66,-235.83 128.07,-288.55 -290.1,19.01 -789.03,558.9 -810.28,715.58 -29.81,-159.4 22.16,-249.73 56.32,-337.75 -93.49,129.51 -936.83,758.46 -941.36,767.53z"/>
   <g>
    <path class="fil5" d="M7870.49 18683.54c1292.65,-353.02 2509.92,-964.29 3595.95,-1745.74 -1131.99,892.5 -2377.15,1507.3 -3769.84,1874.2 -488.57,128.71 -1383.7,373.73 -1836.15,32.3l0.5 -1.2c454.91,56.79 506.95,154.3 1106.54,53.1 288.07,-48.62 619.08,-137.44 903,-212.66z"/>
   </g>
  </g>
  <g id="_2944431373824">
   <g>
    <path class="fil6" d="M10174.67 16408.96c-1223.98,-588.36 -461.23,-779.12 -723.2,-1237.8 104.17,-178.78 -467.21,449.65 -593.04,578.84 407.12,334.35 773.19,562.86 1316.24,658.96z"/>
    <path class="fil6 str4" d="M7256.46 17526.88c650.42,-705.71 2546.48,-2960.3 2567.41,-2932.92 9.82,12.88 -152.98,208.86 -226.44,447.44 -45.1,146.5 -73.71,423.15 -19.39,632.23 109.03,419.63 497.78,833.66 1018.11,830.42 447.79,-2.8 678.08,-252.74 908.89,-811.73 663.5,-1606.79 -2975.87,-2365 -4438.15,-3497.23 -389.65,-301.69 -967.15,158.91 -1443.74,814.8 -311.59,428.85 -1095.28,1630.72 -1780.07,2545.39 269.09,209.91 1771.44,1110.88 3413.38,1971.6z"/>
    <path class="fil7" d="M6838.95 12461.19c160.47,-48.56 326.67,-67.23 358.83,-32.89 13.91,10.47 27.83,20.94 41.74,31.41 -26.18,-28.4 -52.34,-56.79 -78.52,-85.19 -8.69,-9.42 -17.38,-18.86 -26.07,-28.28 -17.48,-18.97 -34.96,-37.94 -52.44,-56.91 -3.37,-3.66 -6.74,-7.3 -10.11,-10.96 -95.15,-13.54 -201.55,13.37 -301.06,59.26 -6.41,2.95 -12.79,5.99 -19.15,9.1 -123.49,60.46 -234.34,148.54 -296.86,221.99 -2.35,2.76 -4.64,5.51 -6.85,8.23 -6.89,8.46 -13.8,17.83 -20.35,27.23 -3.52,5.04 -6.93,10.1 -10.19,15.04 -14.54,22.05 -25.96,41.81 -29.31,47.79 6.32,-3.04 77.12,-37.63 125.04,-65.91 38.71,-22.86 147.97,-79.05 269.85,-121.76 18.26,-6.41 36.82,-12.51 55.45,-18.15z"/>
    <g>
     <path class="fil8" d="M10892.04 16239.7c270.9,-44.99 329.55,357.56 -174.63,358.66 -816.33,1.78 -1248.46,-1224.27 -524.34,-1719.29 626.77,-428.47 1361.01,408.34 695.43,870.91l0 0.01c-426.94,258.07 -662.59,-390.26 -234.79,-460.13 20.93,-3.42 48.35,12.91 -18.75,49.65 -217.9,119.31 -66.75,438.43 161.74,280.02l0 0.01c475.29,-370.27 -85.46,-913.34 -514.96,-505.44l-25.36 25.19 -0.01 0.01c-400.88,416.05 91.86,1155.75 618.53,1102.36l17.14 -1.96z"/>
    </g>
    <path class="fil3 str4" d="M11433.08 14810.11c-249.87,-326.61 -457.91,-522.79 -770.6,-567.22 -661.2,-93.93 -891.27,474.84 -1165.13,783.54"/>
    <path class="fil7" d="M9691.95 13454.48c-26.12,74.55 -83.64,270.1 -111.88,322.01 -10.97,24.37 -24,48.19 -38.7,70.95 -66.64,119.82 -146.46,241.39 -312.09,338.48 -56.47,40.92 -121.01,65.76 -198.2,88.39 -53.78,18.07 -113.51,34.35 -180.11,48.5 90.26,54.96 190.28,60.15 288.89,45.07 340.89,-60.39 769.58,-400.95 819.16,-587.29 -90.7,-106.91 -180.33,-215.75 -267.07,-326.11z"/>
    <path class="fil3 str4" d="M11076.55 16353.82c-166.9,161.94 -549.32,409.79 -1291.08,44.12 -613.59,-302.48 -830.38,-488.45 -1022.68,-612.65"/>
   </g>
   <path class="fil3 str5" d="M5904.38 13426.57c758.74,147.88 336.56,233.69 1049.16,439.55 652.25,188.42 135.32,435.26 898.48,501.44 76.34,6.62 222.55,212.7 533.13,277.2 159.99,33.23 194.68,218.83 269.27,218.83 6.86,29.66 136.58,50.34 167.77,58.36m-3158.53 -1145.24c186.77,47.83 926.56,394.69 992.06,649.21 652.19,0 785.73,588.84 1284.46,627.96 115.17,9.03 -54.2,146.8 408.5,239.47 15.86,3.18 55.79,46.72 57.72,58.97m-3085.57 -962.87c644.44,-153.09 544.27,444.26 1393.25,561.05 210.84,29.01 223.85,244.04 705.06,418.29 181.64,65.78 193.74,200.83 673.6,311.79m-2934.62 -858.72c376.55,204.59 168.27,65.67 750.57,296.7 341.16,135.37 368.27,326.77 655.74,467.57 111.1,54.42 203.05,180.93 463.95,180.93 129.41,0 103.81,278.59 563.6,310.71 32.89,2.29 93.76,42.56 115.62,50.12"/>
  </g>
  <g id="_2944431372384">
   <g>
    <g>
     <g>
      <path class="fil9" d="M19992.57 11105.02l-21.18 388.25 -334.22 198.7 21.18 -388.25 334.22 -198.7zm-635.51 1071.21l865.15 -545.67 82.55 -1019.52 -865.15 545.67 -82.55 1019.52z"/>
      <polygon class="fil3 str6" points="20304.76,10611.03 20222.21,11630.56 19357.06,12176.24 19439.61,11156.71 "/>
      <polygon class="fil3 str6" points="19992.57,11105.02 19971.39,11493.27 19637.18,11691.97 19658.35,11303.72 "/>
     </g>
     <g>
      <path class="fil10" d="M19180.02 13304.69l310.17 -510.19 310.18 -510.18 402.28 -661.68 -766.59 -464.15 -1422.81 2330.34c532.92,248.1 310.7,112.95 775.19,459.93l81.4 -133.89 310.18 -510.18z"/>
      <path class="fil3 str7" d="M18013.25 13488.83c537.83,257.28 313.44,118.05 782.75,474.07l1424.97 -2326.4 -784.91 -478.01 -1422.81 2330.34z"/>
      <line class="fil3 str7" x1="19194.8" y1="11572.05" x2="19806.67" y2= "12291.73" />
      <line class="fil3 str7" x1="18885.36" y1="12083.1" x2="19497.23" y2= "12802.78" />
      <line class="fil3 str7" x1="18575.93" y1="12594.16" x2="19187.79" y2= "13313.84" />
      <line class="fil3 str7" x1="18266.49" y1="13105.21" x2="18878.36" y2= "13824.9" />
     </g>
    </g>
    <path class="fil11 str8" d="M18734.73 14575.22c-612.69,-607.04 -360.34,-406.15 -1153.1,-832.08l-453.61 1453.76 -1593.2 688.16 -1407.99 2013.43 -124.07 2570.8 1117.75 -2386.63 1248.52 -1388.52 1639.06 -474.25 726.64 -1644.67z"/>
    <polyline class="fil3 str9" points="18247.41,14119.34 17471.19,15767.21 15856.41,16354.57 14662.51,17819.85 14012.38,20408.04 "/>
    <path class="fil9 str6" d="M17163.59 13131.2c655.22,129.8 1140.25,316.67 1455.1,560.62 314.84,243.95 616.91,666.95 906.21,1269l-392.51 262.72c-271.58,-462.36 -564.79,-815.52 -879.63,-1059.46 -314.84,-243.95 -730.02,-439.68 -1245.54,-587.2l156.37 -445.68z"/>
   </g>
  </g>
  <g id="_2944431374112">
   <g>
    <polygon class="fil12 str10" points="12494.74,3188.48 9738.68,6976.94 12494.74,6976.94 "/>
    <polygon class="fil13 str10" points="12494.74,3188.48 12494.74,6976.94 15250.8,6976.94 "/>
    <polygon class="fil13 str10" points="9738.68,6976.94 12494.74,6976.94 12494.74,10765.4 "/>
    <polygon class="fil14 str10" points="12494.74,6976.94 15250.8,6976.94 12494.74,10765.4 "/>
   </g>
  </g>
 </g>
</svg>
